Video
ID                                       : 1
Format                                   : AVC
Format/Info                              : Advanced Video Codec
Format profile                           : Main@L3.1
Format settings, CABAC                   : Yes
Format settings, ReFrames                : 4 frames
Codec ID                                 : avc1
Codec ID/Info                            : Advanced Video Coding
Duration                                 : 44mn 19s
Bit rate mode                            : Variable
Bit rate                                 : 807 Kbps
Maximum bit rate                         : 1 000 Kbps
Width                                    : 960 pixels
Height                                   : 544 pixels
Display aspect ratio                     : 16:9
Frame rate mode                          : Constant
Frame rate                               : 29.970 fps
Color space                              : YUV
Chroma subsampling                       : 4:2:0
Bit depth                                : 8 bits
Scan type                                : Progressive
Bits/(Pixel*Frame)                       : 0.052
Stream size                              : 256 MiB (94%)
Language                                 : English

Audio
ID                                       : 2
Format                                   : AAC
Format/Info                              : Advanced Audio Codec
Format profile                           : HE-AAC / LC
Codec ID                                 : 40
Duration                                 : 44mn 19s
Bit rate mode                            : Variable
Bit rate                                 : 48.0 Kbps
Maximum bit rate                         : 52.3 Kbps
Channel(s)                               : 2 channels
Channel positions                        : Front: L R
Sampling rate                            : 44.1 KHz / 22.05 KHz
Compression mode                         : Lossy
Stream size                              : 14.8 MiB (5%)
Language                                 : English